<svg xmlns="http://www.w3.org/2000/svg" version="1.1" xmlns:xlink="http://www.w3.org/1999/xlink" xmlns:svgjs="http://svgjs.dev/svgjs" width="2000" height="1500" viewBox="0 0 2000 1500"><rect width="2000" height="1500" fill="#ffffff"></rect><g transform="matrix(0.75,0,0,0.75,249.090909090909,278.98548387096776)"><svg viewBox="0 0 396 248" data-background-color="#ffffff" preserveAspectRatio="xMidYMid meet" height="1252" width="2000" xmlns="http://www.w3.org/2000/svg" xmlns:xlink="http://www.w3.org/1999/xlink"><g id="tight-bounds" transform="matrix(1,0,0,1,0.2400000000000091,0.4000000000000057)"><svg viewBox="0 0 395.52 247.2" height="247.2" width="395.52"><g><svg></svg></g><g><svg viewBox="0 0 395.52 247.2" height="247.2" width="395.52"><g transform="matrix(1,0,0,1,75.54432000000001,89.4467932256099)"><svg viewBox="0 0 244.43135999999996 68.30641354878021" height="68.30641354878021" width="244.43135999999996"><g><svg viewBox="0 0 375.3802635210849 104.90012213703399" height="68.30641354878021" width="244.43135999999996"><g transform="matrix(1,0,0,1,129.7267467210849,32.415660354797744)"><svg viewBox="0 0 245.65351679999998 40.0688014274385" height="40.0688014274385" width="245.65351679999998"><g id="textblocktransform"><svg viewBox="0 0 245.65351679999998 40.0688014274385" height="40.0688014274385" width="245.65351679999998" id="textblock"><g><rect width="245.65351679999998" height="1.9850547328516999" x="0" y="24.350302781547384" fill="#42516a" opacity="1" stroke-width="0" stroke="transparent" fill-opacity="1" class="rect-yte-0" data-fill-palette-color="primary" rx="1%" id="yte-0" data-palette-color="#42516a"></rect></g><g transform="matrix(1,0,0,1,0.6110783999999825,0)"><svg viewBox="0 0 244.43136 22.01188752033465" height="22.01188752033465" width="244.43136"><g transform="matrix(1,0,0,1,0,0)"><svg width="244.43136" viewBox="-0.35 -38 430.25 38.75" height="22.01188752033465" data-palette-color="#42516a"><path d="M5.95 0.75L5.95 0.75Q5.05 0.75 3.8 0.53 2.55 0.3 1.4-0.06 0.25-0.43-0.35-0.85L-0.35-0.85 2.05-6.8Q2.7-5.88 3.69-5.34 4.67-4.8 5.65-4.8L5.65-4.8Q6.63-4.8 7.6-5.08 8.58-5.35 9.21-6.41 9.85-7.48 9.85-9.85L9.85-9.85 9.85-34.85 16.35-34.85 16.35-10.45Q16.35-7.35 15.4-4.81 14.45-2.27 12.18-0.76 9.9 0.75 5.95 0.75ZM30.55 0L24.2 0 24.2-34.85 30.55-34.85 30.55-17.5 41.65-34.85 49-34.85 37.12-17.55 49.8 0 41.8 0 30.55-16.73 30.55 0ZM71.99 0.55L71.99 0.55Q68.32 0.55 65.57-0.68 62.82-1.9 61.54-3.25L61.54-3.25 64.09-8.5Q64.62-7.83 65.76-6.98 66.89-6.13 68.41-5.49 69.92-4.85 71.54-4.85L71.54-4.85Q73.42-4.85 74.81-5.9 76.19-6.95 76.19-9L76.19-9Q76.19-11.03 74.76-12.21 73.32-13.4 70.84-14.9L70.84-14.9Q68.82-16.13 66.87-17.51 64.92-18.9 63.63-20.91 62.34-22.93 62.34-26L62.34-26Q62.34-30.13 64.98-32.79 67.62-35.45 72.64-35.45L72.64-35.45Q75.19-35.45 76.98-34.85 78.77-34.25 79.88-33.48 80.99-32.7 81.54-32.2L81.54-32.2 78.74-27.1Q78.39-27.6 77.57-28.33 76.74-29.05 75.54-29.6 74.34-30.15 72.89-30.15L72.89-30.15Q70.87-30.15 69.86-28.99 68.84-27.83 68.84-26.25L68.84-26.25Q68.84-24.23 70.33-22.95 71.82-21.68 73.94-20.4L73.94-20.4Q76.29-19 78.29-17.59 80.29-16.18 81.52-14.21 82.74-12.25 82.74-9.2L82.74-9.2Q82.74-4.63 79.87-2.04 76.99 0.55 71.99 0.55ZM94.99-28.95L87.99-28.95 87.99-35.6 94.99-35.6 94.99-28.95ZM94.74 0L88.24 0 88.24-24.9 94.74-24.9 94.74 0ZM108.39 0L102.29 0 102.29-38 108.39-38 108.39 0ZM121.99 0L116.09 0 116.09-38 121.99-38 121.99-19.35 121.79-13.5 129.44-24.9 136.54-24.9 127.84-13.45 137.39 0 129.84 0 121.79-12.05 121.99-5.95 121.99 0ZM148.03 0.45L148.03 0.45Q145.31 0.45 143.57-0.06 141.83-0.58 140.87-1.24 139.91-1.9 139.53-2.35L139.53-2.35 141.38-7.1Q142.48-6.2 144.2-5.33 145.91-4.45 148.18-4.45L148.18-4.45Q149.96-4.45 150.67-5.18 151.38-5.9 151.38-6.75L151.38-6.75Q151.38-7.93 149.76-8.88 148.13-9.83 145.98-10.75L145.98-10.75Q144.71-11.3 143.28-12.15 141.86-13 140.85-14.4 139.83-15.8 139.83-18L139.83-18Q139.83-21.38 142.3-23.39 144.76-25.4 149.28-25.4L149.28-25.4Q152.18-25.4 154.2-24.54 156.21-23.68 156.88-23L156.88-23 155.18-18.5Q154.21-19.25 152.71-19.93 151.21-20.6 149.48-20.6L149.48-20.6Q147.58-20.6 146.83-20.1 146.08-19.6 146.08-18.5L146.08-18.5Q146.08-17.28 147.42-16.49 148.76-15.7 150.63-14.95L150.63-14.95Q153.76-13.73 155.67-11.94 157.58-10.15 157.58-7.4L157.58-7.4Q157.58-5.35 156.63-3.56 155.68-1.78 153.58-0.66 151.48 0.45 148.03 0.45ZM175.03 0L168.03 0 182.78-35.45 183.28-35.45 198.08 0 191.28 0 189.33-5.05 176.88-5.05 175.03 0ZM182.98-22.2L182.18-19.4 178.68-9.9 187.48-9.9 183.83-19.4 182.98-22.2ZM207.33 0L200.93 0 200.93-24.9 206.73-24.9 206.85-21.63Q207.83-23.13 209.58-24.31 211.33-25.5 214.18-25.5L214.18-25.5Q217.98-25.5 219.83-23.1 221.68-20.7 221.68-16.45L221.68-16.45 221.68 0 215.28 0 215.28-15.9Q215.28-17.98 214.4-19.26 213.53-20.55 211.73-20.55L211.73-20.55Q209.98-20.55 208.65-19.26 207.33-17.98 207.33-15.9L207.33-15.9 207.33 0ZM237.22 0.7L237.22 0.7Q234.2 0.7 231.97-0.93 229.75-2.55 228.54-5.5 227.32-8.45 227.32-12.4L227.32-12.4Q227.32-18.55 229.84-22.03 232.35-25.5 237.32-25.5L237.32-25.5Q239.87-25.5 241.64-24.24 243.4-22.98 243.92-20.6L243.92-20.6 243.47-24.25 243.47-38 249.37-38 249.37 0 243.92 0 243.92-5.1Q243.25-2.53 241.55-0.91 239.85 0.7 237.22 0.7ZM238.67-4.25L238.67-4.25Q240.47-4.25 241.9-6.14 243.32-8.03 243.32-12.3L243.32-12.3Q243.32-16.2 242.22-18.32 241.12-20.45 238.82-20.45L238.82-20.45Q237.65-20.45 236.49-19.73 235.32-19 234.55-17.24 233.77-15.48 233.77-12.4L233.77-12.4Q233.77-8.28 235.2-6.26 236.62-4.25 238.67-4.25ZM278.77 0.6L278.77 0.6Q276.04 0.6 273.52-0.51 270.99-1.63 268.98-3.89 266.97-6.15 265.79-9.65 264.62-13.15 264.62-17.9L264.62-17.9Q264.62-23.6 266.6-27.51 268.59-31.43 271.93-33.44 275.27-35.45 279.32-35.45L279.32-35.45Q282.07-35.45 283.81-34.93 285.54-34.4 286.58-33.68 287.62-32.95 288.27-32.35L288.27-32.35 285.47-27.1Q284.39-28.28 283.24-28.99 282.09-29.7 279.57-29.7L279.57-29.7Q277.02-29.7 275.23-28.23 273.44-26.75 272.5-24.16 271.57-21.58 271.57-18.25L271.57-18.25Q271.57-11.73 273.75-8.41 275.94-5.1 279.02-5.1L279.02-5.1Q281.39-5.1 283.07-5.78 284.74-6.45 285.57-7.3L285.57-7.3 288.32-2.35Q287.62-1.78 286.45-1.09 285.29-0.4 283.43 0.1 281.57 0.6 278.77 0.6ZM302.72 0.5L302.72 0.5Q297.22 0.5 294.22-2.95 291.22-6.4 291.22-12.5L291.22-12.5Q291.22-18.65 294.31-22.08 297.42-25.5 302.92-25.5L302.92-25.5Q308.44-25.5 311.33-21.96 314.22-18.43 314.22-12.5L314.22-12.5Q314.22-6.58 311.23-3.04 308.24 0.5 302.72 0.5ZM302.81-4.5L302.81-4.5Q307.56-4.5 307.56-12.5L307.56-12.5Q307.56-20.55 302.81-20.55L302.81-20.55Q300.47-20.55 299.17-18.69 297.87-16.82 297.87-12.5L297.87-12.5Q297.87-8.2 299.17-6.35 300.47-4.5 302.81-4.5ZM328.21 0.75L328.21 0.75Q323.99 0.75 322.5-1.45 321.01-3.65 321.01-8.1L321.01-8.1 321.01-19.65 317.76-19.65 317.76-24.9 321.26-24.9 321.61-30.15 327.06-32.5 327.06-24.9 333.21-24.9 333.21-19.65 327.06-19.65 327.06-8.25Q327.06-6.08 327.68-5.24 328.29-4.4 329.36-4.4L329.36-4.4Q330.46-4.4 331.69-4.98 332.91-5.55 333.61-6.15L333.61-6.15 334.81-1.1Q334.04-0.55 332.8-0.14 331.56 0.28 330.3 0.51 329.04 0.75 328.21 0.75ZM347.66 0.75L347.66 0.75Q343.44 0.75 341.95-1.45 340.46-3.65 340.46-8.1L340.46-8.1 340.46-19.65 337.21-19.65 337.21-24.9 340.71-24.9 341.06-30.15 346.51-32.5 346.51-24.9 352.66-24.9 352.66-19.65 346.51-19.65 346.51-8.25Q346.51-6.08 347.12-5.24 347.74-4.4 348.81-4.4L348.81-4.4Q349.91-4.4 351.13-4.98 352.36-5.55 353.06-6.15L353.06-6.15 354.26-1.1Q353.49-0.55 352.25-0.14 351.01 0.28 349.75 0.51 348.49 0.75 347.66 0.75ZM368.31 0.5L368.31 0.5Q362.81 0.5 359.81-2.95 356.81-6.4 356.81-12.5L356.81-12.5Q356.81-18.65 359.91-22.08 363.01-25.5 368.51-25.5L368.51-25.5Q374.03-25.5 376.92-21.96 379.81-18.43 379.81-12.5L379.81-12.5Q379.81-6.58 376.82-3.04 373.83 0.5 368.31 0.5ZM368.41-4.5L368.41-4.5Q373.16-4.5 373.16-12.5L373.16-12.5Q373.16-20.55 368.41-20.55L368.41-20.55Q366.06-20.55 364.76-18.69 363.46-16.82 363.46-12.5L363.46-12.5Q363.46-8.2 364.76-6.35 366.06-4.5 368.41-4.5ZM392 0L385.6 0 385.6-24.9 391.4-24.9 391.53-21.63Q392.5-23.13 394.25-24.31 396-25.5 398.85-25.5L398.85-25.5Q402.65-25.5 404.5-23.1 406.35-20.7 406.35-16.45L406.35-16.45 406.35 0 399.95 0 399.95-15.9Q399.95-17.98 399.08-19.26 398.2-20.55 396.4-20.55L396.4-20.55Q394.65-20.55 393.33-19.26 392-17.98 392-15.9L392-15.9 392 0ZM420.35 0.45L420.35 0.45Q417.63 0.45 415.89-0.06 414.15-0.58 413.19-1.24 412.23-1.9 411.85-2.35L411.85-2.35 413.7-7.1Q414.8-6.2 416.51-5.33 418.23-4.45 420.5-4.45L420.5-4.45Q422.28-4.45 422.99-5.18 423.7-5.9 423.7-6.75L423.7-6.75Q423.7-7.93 422.08-8.88 420.45-9.83 418.3-10.75L418.3-10.75Q417.03-11.3 415.6-12.15 414.18-13 413.16-14.4 412.15-15.8 412.15-18L412.15-18Q412.15-21.38 414.61-23.39 417.08-25.4 421.6-25.4L421.6-25.4Q424.5-25.4 426.51-24.54 428.53-23.68 429.2-23L429.2-23 427.5-18.5Q426.53-19.25 425.03-19.93 423.53-20.6 421.8-20.6L421.8-20.6Q419.9-20.6 419.15-20.1 418.4-19.6 418.4-18.5L418.4-18.5Q418.4-17.28 419.74-16.49 421.08-15.7 422.95-14.95L422.95-14.95Q426.08-13.73 427.99-11.94 429.9-10.15 429.9-7.4L429.9-7.4Q429.9-5.35 428.95-3.56 428-1.78 425.9-0.66 423.8 0.45 420.35 0.45Z" opacity="1" transform="matrix(1,0,0,1,0,0)" fill="#42516a" class="wordmark-text-0" data-fill-palette-color="primary" id="text-0"></path></svg></g></svg></g><g transform="matrix(1,0,0,1,27.49852799999998,28.67377277561182)"><svg viewBox="0 0 190.65646080000002 11.39502865182668" height="11.39502865182668" width="190.65646080000002"><g transform="matrix(1,0,0,1,0,0)"><svg width="190.65646080000002" viewBox="0.15 -37.35 789.659032253125 47.2" height="11.39502865182668" data-palette-color="#374151"><path d="M11.95 0L0.15-35 6.5-35 15.9-3.7 14.4-3.7 23.8-35 29.6-35 39.05-3.7 37.55-3.7 46.9-35 53-35 41.15 0 35.05 0 25.85-30.25 27.35-30.2 18 0 11.95 0ZM77.4 0L77.4-15Q77.4-18.1 75.7-19.88 74-21.65 71-21.65L71-21.65Q67.45-21.6 65.42-19.15 63.4-16.7 63.4-13.05L63.4-13.05 61.8-13.05Q61.8-18 63.2-21 64.6-24 67.17-25.38 69.75-26.75 73.25-26.75L73.25-26.75Q76.35-26.75 78.57-25.5 80.8-24.25 81.97-21.98 83.15-19.7 83.15-16.5L83.15-16.5 83.15 0 77.4 0ZM57.65 0L57.65-37.1 63.4-37.1 63.4 0 57.65 0ZM93-15.2L109.25-15.2Q109.15-17.45 108.22-19.03 107.3-20.6 105.65-21.48 104-22.35 101.85-22.35L101.85-22.35Q99.45-22.35 97.67-21.25 95.9-20.15 94.9-18.18 93.9-16.2 93.9-13.55L93.9-13.55Q93.9-10.7 94.97-8.6 96.05-6.5 97.97-5.35 99.9-4.2 102.4-4.2L102.4-4.2Q106.85-4.2 109.9-7.35L109.9-7.35 112.95-4.3Q111-2.15 108.2-0.98 105.4 0.2 101.95 0.2L101.95 0.2Q97.85 0.2 94.8-1.5 91.75-3.2 90.05-6.23 88.35-9.25 88.35-13.25L88.35-13.25Q88.35-17.25 90.05-20.28 91.75-23.3 94.8-25 97.85-26.7 101.8-26.75L101.8-26.75Q106.5-26.75 109.35-24.83 112.2-22.9 113.4-19.4 114.6-15.9 114.25-11.1L114.25-11.1 93-11.1 93-15.2ZM135.19-26.75L135.19-21.55Q132.34-21.7 130.27-20.58 128.19-19.45 127.07-17.45 125.94-15.45 125.94-12.85L125.94-12.85 124.34-13.05Q124.34-17.5 125.64-20.55 126.94-23.6 129.39-25.18 131.84-26.75 135.19-26.75L135.19-26.75ZM120.24 0L120.24-26.55 125.99-26.55 125.99 0 120.24 0ZM142.09-15.2L158.34-15.2Q158.24-17.45 157.32-19.03 156.39-20.6 154.74-21.48 153.09-22.35 150.94-22.35L150.94-22.35Q148.54-22.35 146.77-21.25 144.99-20.15 143.99-18.18 142.99-16.2 142.99-13.55L142.99-13.55Q142.99-10.7 144.07-8.6 145.14-6.5 147.07-5.35 148.99-4.2 151.49-4.2L151.49-4.2Q155.94-4.2 158.99-7.35L158.99-7.35 162.04-4.3Q160.09-2.15 157.29-0.98 154.49 0.2 151.04 0.2L151.04 0.2Q146.94 0.2 143.89-1.5 140.84-3.2 139.14-6.23 137.44-9.25 137.44-13.25L137.44-13.25Q137.44-17.25 139.14-20.28 140.84-23.3 143.89-25 146.94-26.7 150.89-26.75L150.89-26.75Q155.59-26.75 158.44-24.83 161.29-22.9 162.49-19.4 163.69-15.9 163.34-11.1L163.34-11.1 142.09-11.1 142.09-15.2ZM211.99-29.95L208.54-25.9Q206.64-28 204.04-29.2 201.44-30.4 198.79-30.4L198.79-30.4Q196.19-30.4 193.91-29.43 191.64-28.45 189.91-26.7 188.19-24.95 187.24-22.63 186.29-20.3 186.29-17.6L186.29-17.6Q186.29-14.95 187.24-12.63 188.19-10.3 189.91-8.55 191.64-6.8 193.91-5.8 196.19-4.8 198.79-4.8L198.79-4.8Q201.44-4.8 203.99-5.93 206.54-7.05 208.54-9L208.54-9 212.04-5.35Q210.29-3.6 208.06-2.3 205.84-1 203.41-0.3 200.99 0.4 198.49 0.4L198.49 0.4Q194.64 0.4 191.34-0.98 188.04-2.35 185.56-4.8 183.09-7.25 181.69-10.53 180.29-13.8 180.29-17.55L180.29-17.55Q180.29-21.3 181.69-24.53 183.09-27.75 185.61-30.2 188.14-32.65 191.46-34 194.79-35.35 198.69-35.35L198.69-35.35Q201.19-35.35 203.59-34.7 205.99-34.05 208.14-32.85 210.29-31.65 211.99-29.95L211.99-29.95ZM229.08-26.75L229.08-26.75Q233.18-26.75 236.31-25.05 239.43-23.35 241.18-20.33 242.93-17.3 242.93-13.3L242.93-13.3Q242.93-9.3 241.18-6.25 239.43-3.2 236.31-1.5 233.18 0.2 229.08 0.2L229.08 0.2Q224.98 0.2 221.83-1.5 218.68-3.2 216.93-6.25 215.18-9.3 215.18-13.3L215.18-13.3Q215.18-17.3 216.93-20.33 218.68-23.35 221.83-25.05 224.98-26.75 229.08-26.75ZM229.08-22.1L229.08-22.1Q226.68-22.1 224.83-20.98 222.98-19.85 221.96-17.85 220.93-15.85 220.93-13.25L220.93-13.25Q220.93-10.6 221.96-8.6 222.98-6.6 224.83-5.48 226.68-4.35 229.08-4.35L229.08-4.35Q231.48-4.35 233.31-5.48 235.13-6.6 236.16-8.6 237.18-10.6 237.18-13.25L237.18-13.25Q237.18-15.85 236.16-17.85 235.13-19.85 233.31-20.98 231.48-22.1 229.08-22.1ZM268.28 0L268.28-15Q268.28-18.15 266.63-19.93 264.98-21.7 262.03-21.7L262.03-21.7Q258.58-21.6 256.61-19.15 254.63-16.7 254.63-13.1L254.63-13.1 253.03-13.1Q253.03-18 254.41-21 255.78-24 258.31-25.38 260.83-26.75 264.28-26.75L264.28-26.75Q267.33-26.75 269.51-25.5 271.68-24.25 272.86-21.98 274.03-19.7 274.03-16.5L274.03-16.5 274.03 0 268.28 0ZM287.63 0L287.63-15Q287.63-18.15 285.96-19.93 284.28-21.7 281.33-21.7L281.33-21.7Q277.93-21.6 275.98-19.15 274.03-16.7 274.03-13.1L274.03-13.1 272.38-13.1Q272.38-18 273.76-21 275.13-24 277.66-25.38 280.18-26.75 283.63-26.75L283.63-26.75Q286.68-26.75 288.86-25.5 291.03-24.25 292.21-21.98 293.38-19.7 293.38-16.5L293.38-16.5 293.38 0 287.63 0ZM248.93 0L248.93-26.55 254.63-26.55 254.63 0 248.93 0ZM302.18 0L302.18-28.2Q302.18-31.35 303.5-33.38 304.83-35.4 306.93-36.38 309.03-37.35 311.33-37.35L311.33-37.35Q312.53-37.35 313.75-37.02 314.98-36.7 316.03-36.15L316.03-36.15 314.83-31.75Q314.13-32.05 313.25-32.33 312.38-32.6 311.48-32.6L311.48-32.6Q310.53-32.6 309.7-32.23 308.88-31.85 308.38-31.03 307.88-30.2 307.88-28.9L307.88-28.9 307.88 0 302.18 0ZM298.68-21.5L298.68-25.6 314.83-25.6 314.83-21.5 298.68-21.5ZM330.23-26.75L330.23-26.75Q334.33-26.75 337.45-25.05 340.58-23.35 342.33-20.33 344.08-17.3 344.08-13.3L344.08-13.3Q344.08-9.3 342.33-6.25 340.58-3.2 337.45-1.5 334.33 0.2 330.23 0.2L330.23 0.2Q326.13 0.2 322.98-1.5 319.83-3.2 318.08-6.25 316.33-9.3 316.33-13.3L316.33-13.3Q316.33-17.3 318.08-20.33 319.83-23.35 322.98-25.05 326.13-26.75 330.23-26.75ZM330.23-22.1L330.23-22.1Q327.83-22.1 325.98-20.98 324.13-19.85 323.1-17.85 322.08-15.85 322.08-13.25L322.08-13.25Q322.08-10.6 323.1-8.6 324.13-6.6 325.98-5.48 327.83-4.35 330.23-4.35L330.23-4.35Q332.63-4.35 334.45-5.48 336.28-6.6 337.3-8.6 338.33-10.6 338.33-13.25L338.33-13.25Q338.33-15.85 337.3-17.85 336.28-19.85 334.45-20.98 332.63-22.1 330.23-22.1ZM365.02-26.75L365.02-21.55Q362.17-21.7 360.1-20.58 358.02-19.45 356.9-17.45 355.77-15.45 355.77-12.85L355.77-12.85 354.17-13.05Q354.17-17.5 355.47-20.55 356.77-23.6 359.22-25.18 361.67-26.75 365.02-26.75L365.02-26.75ZM350.07 0L350.07-26.55 355.82-26.55 355.82 0 350.07 0ZM376.52-32.85L376.52-8.4Q376.52-6.25 377.27-5.48 378.02-4.7 379.37-4.7L379.37-4.7Q380.27-4.7 381.25-5 382.22-5.3 383.37-5.9L383.37-5.9 384.82-1.75Q383.27-0.8 381.62-0.28 379.97 0.25 378.27 0.25L378.27 0.25Q376.27 0.25 374.57-0.53 372.87-1.3 371.85-3 370.82-4.7 370.82-7.4L370.82-7.4 370.82-32.85 376.52-32.85ZM367.07-21.5L367.07-25.6 384.37-25.6 384.37-21.5 367.07-21.5ZM403.97 0L403.97-35 410.82-35 422.92-11.25 434.92-35 441.77-35 441.77 0 436.32 0 436.27-26.75 424.77-3.65 421.02-3.65 409.42-26.75 409.42 0 403.97 0ZM452.76-15.2L469.01-15.2Q468.91-17.45 467.99-19.03 467.06-20.6 465.41-21.48 463.76-22.35 461.61-22.35L461.61-22.35Q459.21-22.35 457.44-21.25 455.66-20.15 454.66-18.18 453.66-16.2 453.66-13.55L453.66-13.55Q453.66-10.7 454.74-8.6 455.81-6.5 457.74-5.35 459.66-4.2 462.16-4.2L462.16-4.2Q466.61-4.2 469.66-7.35L469.66-7.35 472.71-4.3Q470.76-2.15 467.96-0.98 465.16 0.2 461.71 0.2L461.71 0.2Q457.61 0.2 454.56-1.5 451.51-3.2 449.81-6.23 448.11-9.25 448.11-13.25L448.11-13.25Q448.11-17.25 449.81-20.28 451.51-23.3 454.56-25 457.61-26.7 461.56-26.75L461.56-26.75Q466.26-26.75 469.11-24.83 471.96-22.9 473.16-19.4 474.36-15.9 474.01-11.1L474.01-11.1 452.76-11.1 452.76-15.2ZM482.16-15.2L498.41-15.2Q498.31-17.45 497.39-19.03 496.46-20.6 494.81-21.48 493.16-22.35 491.01-22.35L491.01-22.35Q488.61-22.35 486.84-21.25 485.06-20.15 484.06-18.18 483.06-16.2 483.06-13.55L483.06-13.55Q483.06-10.7 484.14-8.6 485.21-6.5 487.14-5.35 489.06-4.2 491.56-4.2L491.56-4.2Q496.01-4.2 499.06-7.35L499.06-7.35 502.11-4.3Q500.16-2.15 497.36-0.98 494.56 0.2 491.11 0.2L491.11 0.2Q487.01 0.2 483.96-1.5 480.91-3.2 479.21-6.23 477.51-9.25 477.51-13.25L477.51-13.25Q477.51-17.25 479.21-20.28 480.91-23.3 483.96-25 487.01-26.7 490.96-26.75L490.96-26.75Q495.66-26.75 498.51-24.83 501.36-22.9 502.56-19.4 503.76-15.9 503.41-11.1L503.41-11.1 482.16-11.1 482.16-15.2ZM516.16-32.85L516.16-8.4Q516.16-6.25 516.91-5.48 517.66-4.7 519.01-4.7L519.01-4.7Q519.91-4.7 520.88-5 521.86-5.3 523.01-5.9L523.01-5.9 524.46-1.75Q522.91-0.8 521.26-0.28 519.61 0.25 517.91 0.25L517.91 0.25Q515.91 0.25 514.21-0.53 512.51-1.3 511.48-3 510.46-4.7 510.46-7.4L510.46-7.4 510.46-32.85 516.16-32.85ZM506.71-21.5L506.71-25.6 524.01-25.6 524.01-21.5 506.71-21.5ZM547-24.15L544.9-20.1Q543.15-21.15 541.08-21.78 539-22.4 537.25-22.4L537.25-22.4Q535.55-22.4 534.46-21.75 533.36-21.1 533.36-19.6L533.36-19.6Q533.36-18.35 534.38-17.63 535.4-16.9 537-16.4 538.61-15.9 540.4-15.35 542.21-14.8 543.83-13.93 545.46-13.05 546.46-11.55 547.46-10.05 547.46-7.6L547.46-7.6Q547.46-4.9 546.03-3.18 544.61-1.45 542.28-0.63 539.96 0.2 537.25 0.2L537.25 0.2Q534.36 0.2 531.46-0.75 528.55-1.7 526.55-3.5L526.55-3.5 528.61-7.4Q530.36-5.85 532.86-4.98 535.36-4.1 537.5-4.1L537.5-4.1Q538.75-4.1 539.73-4.42 540.71-4.75 541.28-5.4 541.86-6.05 541.86-7.1L541.86-7.1Q541.86-8.5 540.86-9.3 539.86-10.1 538.25-10.63 536.65-11.15 534.86-11.68 533.05-12.2 531.48-13.05 529.9-13.9 528.9-15.35 527.9-16.8 527.9-19.2L527.9-19.2Q527.9-21.9 529.3-23.58 530.71-25.25 532.93-26.03 535.15-26.8 537.71-26.8L537.71-26.8Q540.21-26.8 542.71-26.1 545.21-25.4 547-24.15L547-24.15ZM567.1 0L567.1-35 592.1-35 592.1-29.95 573-29.95 573-20.1 590.1-20.1 590.1-15.1 573-15.1 573-5.05 592.7-5.05 592.7 0 567.1 0ZM599.8 0L599.8-37.1 605.55-37.1 605.55 0 599.8 0ZM616.44-15.2L632.69-15.2Q632.59-17.45 631.67-19.03 630.74-20.6 629.09-21.48 627.44-22.35 625.29-22.35L625.29-22.35Q622.89-22.35 621.12-21.25 619.34-20.15 618.34-18.18 617.34-16.2 617.34-13.55L617.34-13.55Q617.34-10.7 618.42-8.6 619.49-6.5 621.42-5.35 623.34-4.2 625.84-4.2L625.84-4.2Q630.29-4.2 633.34-7.35L633.34-7.35 636.39-4.3Q634.44-2.15 631.64-0.98 628.84 0.2 625.39 0.2L625.39 0.2Q621.29 0.2 618.24-1.5 615.19-3.2 613.49-6.23 611.79-9.25 611.79-13.25L611.79-13.25Q611.79-17.25 613.49-20.28 615.19-23.3 618.24-25 621.29-26.7 625.24-26.75L625.24-26.75Q629.94-26.75 632.79-24.83 635.64-22.9 636.84-19.4 638.04-15.9 637.69-11.1L637.69-11.1 616.44-11.1 616.44-15.2ZM667.69-26.55L667.69-2.65Q667.69 1.2 665.99 4 664.29 6.8 661.19 8.33 658.09 9.85 653.89 9.85L653.89 9.85Q650.79 9.85 648.04 8.93 645.29 8 642.84 6.35L642.84 6.35 645.29 2.4Q647.19 3.8 649.19 4.58 651.19 5.35 653.64 5.35L653.64 5.35Q656.19 5.35 658.07 4.38 659.94 3.4 660.97 1.65 661.99-0.1 661.99-2.5L661.99-2.5 661.99-26.55 667.69-26.55ZM652.99-26.75L652.99-26.75Q656.49-26.8 658.97-25.28 661.44-23.75 662.74-20.9 664.04-18.05 663.99-14.05L663.99-14.05Q664.04-10.05 662.77-7.18 661.49-4.3 659.07-2.78 656.64-1.25 653.19-1.25L653.19-1.25Q649.59-1.25 646.89-2.88 644.19-4.5 642.69-7.4 641.19-10.3 641.19-14.1L641.19-14.1Q641.19-17.85 642.67-20.68 644.14-23.5 646.82-25.13 649.49-26.75 652.99-26.75ZM654.34-22.35L654.34-22.35Q652.09-22.35 650.34-21.28 648.59-20.2 647.62-18.3 646.64-16.4 646.59-13.95L646.59-13.95Q646.64-11.5 647.62-9.6 648.59-7.7 650.32-6.63 652.04-5.55 654.34-5.55L654.34-5.55Q656.59-5.55 658.32-6.63 660.04-7.7 661.02-9.6 661.99-11.5 661.99-13.95L661.99-13.95Q661.99-16.45 661.02-18.32 660.04-20.2 658.32-21.28 656.59-22.35 654.34-22.35ZM692.34-11.85L684.39-11.85Q681.59-11.85 680.24-11 678.89-10.15 678.89-8.2L678.89-8.2Q678.89-6.35 680.26-5.25 681.64-4.15 684.04-4.15L684.04-4.15Q686.19-4.15 687.89-4.9 689.59-5.65 690.59-6.93 691.59-8.2 691.64-9.8L691.64-9.8 692.74-4.95Q691.49-2.35 688.94-1.05 686.39 0.25 682.84 0.25L682.84 0.25Q679.99 0.25 677.89-0.85 675.79-1.95 674.64-3.83 673.49-5.7 673.49-8L673.49-8Q673.49-11.6 676.11-13.75 678.74-15.9 683.54-15.95L683.54-15.95 692.34-15.95 692.34-11.85ZM691.64 0L691.59-16.85Q691.59-19.45 689.99-20.9 688.39-22.35 685.24-22.35L685.24-22.35Q683.34-22.35 681.36-21.65 679.39-20.95 677.39-19.6L677.39-19.6 675.04-23.3Q676.89-24.45 678.54-25.2 680.19-25.95 682.06-26.35 683.94-26.75 686.49-26.75L686.49-26.75Q691.64-26.75 694.41-24.28 697.19-21.8 697.24-17.45L697.24-17.45 697.29 0 691.64 0ZM724.69 0L724.69-15Q724.69-18.1 722.99-19.88 721.29-21.65 718.29-21.65L718.29-21.65Q714.74-21.6 712.71-19.15 710.69-16.7 710.69-13.05L710.69-13.05 709.09-13.05Q709.09-18 710.49-21 711.89-24 714.46-25.38 717.04-26.75 720.54-26.75L720.54-26.75Q723.64-26.75 725.86-25.5 728.09-24.25 729.26-21.98 730.44-19.7 730.44-16.5L730.44-16.5 730.44 0 724.69 0ZM704.99 0L704.99-26.55 710.74-26.55 710.74 0 704.99 0ZM760.03-22.65L756.88-18.95Q755.48-20.4 753.58-21.2 751.68-22 749.28-22L749.28-22Q746.98-22 745.18-20.9 743.38-19.8 742.38-17.82 741.38-15.85 741.38-13.25L741.38-13.25Q741.38-10.65 742.38-8.68 743.38-6.7 745.18-5.58 746.98-4.45 749.28-4.45L749.28-4.45Q751.78-4.45 753.78-5.28 755.78-6.1 757.13-7.7L757.13-7.7 760.33-4.55Q758.53-2.3 755.66-1.05 752.78 0.2 749.03 0.2L749.03 0.2Q745.08 0.2 742.06-1.5 739.03-3.2 737.33-6.23 735.63-9.25 735.63-13.25L735.63-13.25Q735.63-17.25 737.33-20.28 739.03-23.3 742.06-25.03 745.08-26.75 749.03-26.75L749.03-26.75Q752.63-26.75 755.41-25.68 758.18-24.6 760.03-22.65L760.03-22.65ZM768.48-15.2L784.73-15.2Q784.63-17.45 783.71-19.03 782.78-20.6 781.13-21.48 779.48-22.35 777.33-22.35L777.33-22.35Q774.93-22.35 773.16-21.25 771.38-20.15 770.38-18.18 769.38-16.2 769.38-13.55L769.38-13.55Q769.38-10.7 770.46-8.6 771.53-6.5 773.46-5.35 775.38-4.2 777.88-4.2L777.88-4.2Q782.33-4.2 785.38-7.35L785.38-7.35 788.43-4.3Q786.48-2.15 783.68-0.98 780.88 0.2 777.43 0.2L777.43 0.2Q773.33 0.2 770.28-1.5 767.23-3.2 765.53-6.23 763.83-9.25 763.83-13.25L763.83-13.25Q763.83-17.25 765.53-20.28 767.23-23.3 770.28-25 773.33-26.7 777.28-26.75L777.28-26.75Q781.98-26.75 784.83-24.83 787.68-22.9 788.88-19.4 790.08-15.9 789.73-11.1L789.73-11.1 768.48-11.1 768.48-15.2Z" opacity="1" transform="matrix(1,0,0,1,0,0)" fill="#374151" class="slogan-text-1" data-fill-palette-color="secondary" id="text-1"></path></svg></g></svg></g></svg></g></svg></g><g><svg viewBox="0 0 124.53026836283439 104.90012213703399" height="104.90012213703399" width="124.53026836283439"><g><svg xmlns="http://www.w3.org/2000/svg" xmlns:xlink="http://www.w3.org/1999/xlink" version="1.1" x="0" y="0" viewBox="5 12.095 89.99764711924837 75.811" enable-background="new 0 0 100 100" xml:space="preserve" height="104.90012213703399" width="124.53026836283439" class="icon-icon-0" data-fill-palette-color="accent" id="icon-0"></svg></g></svg></g></svg></g></svg></g><g><path d="M0 123.6c0-68.262 55.338-123.6 123.6-123.6 55.797 0 102.959 36.972 118.322 87.755h-0.675c-15.343-50.42-62.21-87.109-117.647-87.109-67.905 0-122.954 55.048-122.954 122.954 0 67.905 55.048 122.954 122.954 122.954 55.437 0 102.304-36.688 117.647-87.109l0.675 0c-15.364 50.782-62.525 87.755-118.322 87.755-68.262 0-123.6-55.338-123.6-123.6z" fill="#374151" stroke="transparent" data-fill-palette-color="tertiary"></path></g></svg></g><defs></defs><mask id="cb314dd0-0148-4dfa-870c-cdc5c15cd2ac"><g id="SvgjsG1110"><svg viewBox="0 0 395.52 247.2" height="247.2" width="395.52"><g><svg></svg></g><g><svg viewBox="0 0 395.52 247.2" height="247.2" width="395.52"><g transform="matrix(1,0,0,1,75.54432000000001,89.4467932256099)"><svg viewBox="0 0 244.43135999999996 68.30641354878021" height="68.30641354878021" width="244.43135999999996"><g><svg viewBox="0 0 375.3802635210849 104.90012213703399" height="68.30641354878021" width="244.43135999999996"><g transform="matrix(1,0,0,1,129.7267467210849,32.415660354797744)"><svg viewBox="0 0 245.65351679999998 40.0688014274385" height="40.0688014274385" width="245.65351679999998"><g id="SvgjsG1109"><svg viewBox="0 0 245.65351679999998 40.0688014274385" height="40.0688014274385" width="245.65351679999998" id="SvgjsSvg1108"><g><rect width="245.65351679999998" height="1.9850547328516999" x="0" y="24.350302781547384" fill="black" opacity="1" stroke-width="0" stroke="transparent" fill-opacity="1" class="rect-yte-0" rx="1%" id="SvgjsRect1107" data-palette-color="#42516a"></rect></g><g transform="matrix(1,0,0,1,0.6110783999999825,0)"><svg viewBox="0 0 244.43136 22.01188752033465" height="22.01188752033465" width="244.43136"><g transform="matrix(1,0,0,1,0,0)"><svg width="244.43136" viewBox="-0.35 -38 430.25 38.75" height="22.01188752033465" data-palette-color="#42516a"><path d="M5.95 0.75L5.95 0.75Q5.05 0.75 3.8 0.53 2.55 0.3 1.4-0.06 0.25-0.43-0.35-0.85L-0.35-0.85 2.05-6.8Q2.7-5.88 3.69-5.34 4.67-4.8 5.65-4.8L5.65-4.8Q6.63-4.8 7.6-5.08 8.58-5.35 9.21-6.41 9.85-7.48 9.85-9.85L9.85-9.85 9.85-34.85 16.35-34.85 16.35-10.45Q16.35-7.35 15.4-4.81 14.45-2.27 12.18-0.76 9.9 0.75 5.95 0.75ZM30.55 0L24.2 0 24.2-34.85 30.55-34.85 30.55-17.5 41.65-34.85 49-34.85 37.12-17.55 49.8 0 41.8 0 30.55-16.73 30.55 0ZM71.99 0.55L71.99 0.55Q68.32 0.55 65.57-0.68 62.82-1.9 61.54-3.25L61.54-3.25 64.09-8.5Q64.62-7.83 65.76-6.98 66.89-6.13 68.41-5.49 69.92-4.85 71.54-4.85L71.54-4.85Q73.42-4.85 74.81-5.9 76.19-6.95 76.19-9L76.19-9Q76.19-11.03 74.76-12.21 73.32-13.4 70.84-14.9L70.84-14.9Q68.82-16.13 66.87-17.51 64.92-18.9 63.63-20.91 62.34-22.93 62.34-26L62.34-26Q62.34-30.13 64.98-32.79 67.62-35.45 72.64-35.45L72.64-35.45Q75.19-35.45 76.98-34.85 78.77-34.25 79.88-33.48 80.99-32.7 81.54-32.2L81.54-32.2 78.74-27.1Q78.39-27.6 77.57-28.33 76.74-29.05 75.54-29.6 74.34-30.15 72.89-30.15L72.89-30.15Q70.87-30.15 69.86-28.99 68.84-27.83 68.84-26.25L68.84-26.25Q68.84-24.23 70.33-22.95 71.82-21.68 73.94-20.4L73.94-20.4Q76.29-19 78.29-17.59 80.29-16.18 81.52-14.21 82.74-12.25 82.74-9.2L82.74-9.2Q82.74-4.63 79.87-2.04 76.99 0.55 71.99 0.55ZM94.99-28.95L87.99-28.95 87.99-35.6 94.99-35.6 94.99-28.95ZM94.74 0L88.24 0 88.24-24.9 94.74-24.9 94.74 0ZM108.39 0L102.29 0 102.29-38 108.39-38 108.39 0ZM121.99 0L116.09 0 116.09-38 121.99-38 121.99-19.35 121.79-13.5 129.44-24.9 136.54-24.9 127.84-13.45 137.39 0 129.84 0 121.79-12.05 121.99-5.95 121.99 0ZM148.03 0.45L148.03 0.45Q145.31 0.45 143.57-0.06 141.83-0.58 140.87-1.24 139.91-1.9 139.53-2.35L139.53-2.35 141.38-7.1Q142.48-6.2 144.2-5.33 145.91-4.45 148.18-4.45L148.18-4.45Q149.96-4.45 150.67-5.18 151.38-5.9 151.38-6.75L151.38-6.75Q151.38-7.93 149.76-8.88 148.13-9.83 145.98-10.75L145.98-10.75Q144.71-11.3 143.28-12.15 141.86-13 140.85-14.4 139.83-15.8 139.83-18L139.83-18Q139.83-21.38 142.3-23.39 144.76-25.4 149.28-25.4L149.28-25.4Q152.18-25.4 154.2-24.54 156.21-23.68 156.88-23L156.88-23 155.18-18.5Q154.21-19.25 152.71-19.93 151.21-20.6 149.48-20.6L149.48-20.6Q147.58-20.6 146.83-20.1 146.08-19.6 146.08-18.5L146.08-18.5Q146.08-17.28 147.42-16.49 148.76-15.7 150.63-14.95L150.63-14.95Q153.76-13.73 155.67-11.94 157.58-10.15 157.58-7.4L157.58-7.4Q157.58-5.35 156.63-3.56 155.68-1.78 153.58-0.66 151.48 0.45 148.03 0.45ZM175.03 0L168.03 0 182.78-35.45 183.28-35.45 198.08 0 191.28 0 189.33-5.05 176.88-5.05 175.03 0ZM182.98-22.2L182.18-19.4 178.68-9.9 187.48-9.9 183.83-19.4 182.98-22.2ZM207.33 0L200.93 0 200.93-24.9 206.73-24.9 206.85-21.63Q207.83-23.13 209.58-24.31 211.33-25.5 214.18-25.5L214.18-25.5Q217.98-25.5 219.83-23.1 221.68-20.7 221.68-16.45L221.68-16.45 221.68 0 215.28 0 215.28-15.9Q215.28-17.98 214.4-19.26 213.53-20.55 211.73-20.55L211.73-20.55Q209.98-20.55 208.65-19.26 207.33-17.98 207.33-15.9L207.33-15.9 207.33 0ZM237.22 0.7L237.22 0.7Q234.2 0.7 231.97-0.93 229.75-2.55 228.54-5.5 227.32-8.45 227.32-12.4L227.32-12.4Q227.32-18.55 229.84-22.03 232.35-25.5 237.32-25.5L237.32-25.5Q239.87-25.5 241.64-24.24 243.4-22.98 243.92-20.6L243.92-20.6 243.47-24.25 243.47-38 249.37-38 249.37 0 243.92 0 243.92-5.1Q243.25-2.53 241.55-0.91 239.85 0.7 237.22 0.7ZM238.67-4.25L238.67-4.25Q240.47-4.25 241.9-6.14 243.32-8.03 243.32-12.3L243.32-12.3Q243.32-16.2 242.22-18.32 241.12-20.45 238.82-20.45L238.82-20.45Q237.65-20.45 236.49-19.73 235.32-19 234.55-17.24 233.77-15.48 233.77-12.4L233.77-12.4Q233.77-8.28 235.2-6.26 236.62-4.25 238.67-4.25ZM278.77 0.6L278.77 0.6Q276.04 0.6 273.52-0.51 270.99-1.63 268.98-3.89 266.97-6.15 265.79-9.65 264.62-13.15 264.62-17.9L264.62-17.9Q264.62-23.6 266.6-27.51 268.59-31.43 271.93-33.44 275.27-35.45 279.32-35.45L279.32-35.45Q282.07-35.45 283.81-34.93 285.54-34.4 286.58-33.68 287.62-32.95 288.27-32.35L288.27-32.35 285.47-27.1Q284.39-28.28 283.24-28.99 282.09-29.7 279.57-29.7L279.57-29.7Q277.02-29.7 275.23-28.23 273.44-26.75 272.5-24.16 271.57-21.58 271.57-18.25L271.57-18.25Q271.57-11.73 273.75-8.41 275.94-5.1 279.02-5.1L279.02-5.1Q281.39-5.1 283.07-5.78 284.74-6.45 285.57-7.3L285.57-7.3 288.32-2.35Q287.62-1.78 286.45-1.09 285.29-0.4 283.43 0.1 281.57 0.6 278.77 0.6ZM302.72 0.5L302.72 0.5Q297.22 0.5 294.22-2.95 291.22-6.4 291.22-12.5L291.22-12.5Q291.22-18.65 294.31-22.08 297.42-25.5 302.92-25.5L302.92-25.5Q308.44-25.5 311.33-21.96 314.22-18.43 314.22-12.5L314.22-12.5Q314.22-6.58 311.23-3.04 308.24 0.5 302.72 0.5ZM302.81-4.5L302.81-4.5Q307.56-4.5 307.56-12.5L307.56-12.5Q307.56-20.55 302.81-20.55L302.81-20.55Q300.47-20.55 299.17-18.69 297.87-16.82 297.87-12.5L297.87-12.5Q297.87-8.2 299.17-6.35 300.47-4.5 302.81-4.5ZM328.21 0.75L328.21 0.75Q323.99 0.75 322.5-1.45 321.01-3.65 321.01-8.1L321.01-8.1 321.01-19.65 317.76-19.65 317.76-24.9 321.26-24.9 321.61-30.15 327.06-32.5 327.06-24.9 333.21-24.9 333.21-19.65 327.06-19.65 327.06-8.25Q327.06-6.08 327.68-5.24 328.29-4.4 329.36-4.4L329.36-4.4Q330.46-4.4 331.69-4.98 332.91-5.55 333.61-6.15L333.61-6.15 334.81-1.1Q334.04-0.55 332.8-0.14 331.56 0.28 330.3 0.51 329.04 0.75 328.21 0.75ZM347.66 0.75L347.66 0.75Q343.44 0.75 341.95-1.45 340.46-3.65 340.46-8.1L340.46-8.1 340.46-19.65 337.21-19.65 337.21-24.9 340.71-24.9 341.06-30.15 346.51-32.5 346.51-24.9 352.66-24.9 352.66-19.65 346.51-19.65 346.51-8.25Q346.51-6.08 347.12-5.24 347.74-4.4 348.81-4.4L348.81-4.4Q349.91-4.4 351.13-4.98 352.36-5.55 353.06-6.15L353.06-6.15 354.26-1.1Q353.49-0.55 352.25-0.14 351.01 0.28 349.75 0.51 348.49 0.75 347.66 0.75ZM368.31 0.5L368.31 0.5Q362.81 0.5 359.81-2.95 356.81-6.4 356.81-12.5L356.81-12.5Q356.81-18.65 359.91-22.08 363.01-25.5 368.51-25.5L368.51-25.5Q374.03-25.5 376.92-21.96 379.81-18.43 379.81-12.5L379.81-12.5Q379.81-6.58 376.82-3.04 373.83 0.5 368.31 0.5ZM368.41-4.5L368.41-4.5Q373.16-4.5 373.16-12.5L373.16-12.5Q373.16-20.55 368.41-20.55L368.41-20.55Q366.06-20.55 364.76-18.69 363.46-16.82 363.46-12.5L363.46-12.5Q363.46-8.2 364.76-6.35 366.06-4.5 368.41-4.5ZM392 0L385.6 0 385.6-24.9 391.4-24.9 391.53-21.63Q392.5-23.13 394.25-24.31 396-25.5 398.85-25.5L398.85-25.5Q402.65-25.5 404.5-23.1 406.35-20.7 406.35-16.45L406.35-16.45 406.35 0 399.95 0 399.95-15.9Q399.95-17.98 399.08-19.26 398.2-20.55 396.4-20.55L396.4-20.55Q394.65-20.55 393.33-19.26 392-17.98 392-15.9L392-15.9 392 0ZM420.35 0.45L420.35 0.45Q417.63 0.45 415.89-0.06 414.15-0.58 413.19-1.24 412.23-1.9 411.85-2.35L411.85-2.35 413.7-7.1Q414.8-6.2 416.51-5.33 418.23-4.45 420.5-4.45L420.5-4.45Q422.28-4.45 422.99-5.18 423.7-5.9 423.7-6.75L423.7-6.75Q423.7-7.93 422.08-8.88 420.45-9.83 418.3-10.75L418.3-10.75Q417.03-11.3 415.6-12.15 414.18-13 413.16-14.4 412.15-15.8 412.15-18L412.15-18Q412.15-21.38 414.61-23.39 417.08-25.4 421.6-25.4L421.6-25.4Q424.5-25.4 426.51-24.54 428.53-23.68 429.2-23L429.2-23 427.5-18.5Q426.53-19.25 425.03-19.93 423.53-20.6 421.8-20.6L421.8-20.6Q419.9-20.6 419.15-20.1 418.4-19.6 418.4-18.5L418.4-18.5Q418.4-17.28 419.74-16.49 421.08-15.7 422.95-14.95L422.95-14.95Q426.08-13.73 427.99-11.94 429.9-10.15 429.9-7.4L429.9-7.4Q429.9-5.35 428.95-3.56 428-1.78 425.9-0.66 423.8 0.45 420.35 0.45Z" opacity="1" transform="matrix(1,0,0,1,0,0)" fill="black" class="wordmark-text-0" id="SvgjsPath1106"></path></svg></g></svg></g><g transform="matrix(1,0,0,1,27.49852799999998,28.67377277561182)"><svg viewBox="0 0 190.65646080000002 11.39502865182668" height="11.39502865182668" width="190.65646080000002"><g transform="matrix(1,0,0,1,0,0)"><svg width="190.65646080000002" viewBox="0.15 -37.35 789.659032253125 47.2" height="11.39502865182668" data-palette-color="#374151"><path d="M11.95 0L0.15-35 6.5-35 15.9-3.7 14.4-3.7 23.8-35 29.6-35 39.05-3.7 37.55-3.7 46.9-35 53-35 41.15 0 35.05 0 25.85-30.25 27.35-30.2 18 0 11.95 0ZM77.4 0L77.4-15Q77.4-18.1 75.7-19.88 74-21.65 71-21.65L71-21.65Q67.45-21.6 65.42-19.15 63.4-16.7 63.4-13.05L63.4-13.05 61.8-13.05Q61.8-18 63.2-21 64.6-24 67.17-25.38 69.75-26.75 73.25-26.75L73.25-26.75Q76.35-26.75 78.57-25.5 80.8-24.25 81.97-21.98 83.15-19.7 83.15-16.5L83.15-16.5 83.15 0 77.4 0ZM57.65 0L57.65-37.1 63.4-37.1 63.4 0 57.65 0ZM93-15.2L109.25-15.2Q109.15-17.45 108.22-19.03 107.3-20.6 105.65-21.48 104-22.35 101.85-22.35L101.85-22.35Q99.45-22.35 97.67-21.25 95.9-20.15 94.9-18.18 93.9-16.2 93.9-13.55L93.9-13.55Q93.9-10.7 94.97-8.6 96.05-6.5 97.97-5.35 99.9-4.2 102.4-4.2L102.4-4.2Q106.85-4.2 109.9-7.35L109.9-7.35 112.95-4.3Q111-2.15 108.2-0.98 105.4 0.2 101.95 0.2L101.95 0.2Q97.85 0.2 94.8-1.5 91.75-3.2 90.05-6.23 88.35-9.25 88.35-13.25L88.35-13.25Q88.35-17.25 90.05-20.28 91.75-23.3 94.8-25 97.85-26.7 101.8-26.75L101.8-26.75Q106.5-26.75 109.35-24.83 112.2-22.9 113.4-19.4 114.6-15.9 114.25-11.1L114.25-11.1 93-11.1 93-15.2ZM135.19-26.75L135.19-21.55Q132.34-21.7 130.27-20.58 128.19-19.45 127.07-17.45 125.94-15.45 125.94-12.85L125.94-12.85 124.34-13.05Q124.34-17.5 125.64-20.55 126.94-23.6 129.39-25.18 131.84-26.75 135.19-26.75L135.19-26.75ZM120.24 0L120.24-26.55 125.99-26.55 125.99 0 120.24 0ZM142.09-15.2L158.34-15.2Q158.24-17.45 157.32-19.03 156.39-20.6 154.74-21.48 153.09-22.35 150.94-22.35L150.94-22.35Q148.54-22.35 146.77-21.25 144.99-20.15 143.99-18.18 142.99-16.2 142.99-13.55L142.99-13.55Q142.99-10.7 144.07-8.6 145.14-6.5 147.07-5.35 148.99-4.2 151.49-4.2L151.49-4.2Q155.94-4.2 158.99-7.35L158.99-7.35 162.04-4.3Q160.09-2.15 157.29-0.98 154.49 0.2 151.04 0.2L151.04 0.2Q146.94 0.2 143.89-1.5 140.84-3.2 139.14-6.23 137.44-9.25 137.44-13.25L137.44-13.25Q137.44-17.25 139.14-20.28 140.84-23.3 143.89-25 146.94-26.7 150.89-26.75L150.89-26.75Q155.59-26.75 158.44-24.83 161.29-22.9 162.49-19.4 163.69-15.9 163.34-11.1L163.34-11.1 142.09-11.1 142.09-15.2ZM211.99-29.95L208.54-25.9Q206.64-28 204.04-29.2 201.44-30.4 198.79-30.4L198.79-30.4Q196.19-30.4 193.91-29.43 191.64-28.45 189.91-26.7 188.19-24.95 187.24-22.63 186.29-20.3 186.29-17.6L186.29-17.6Q186.29-14.95 187.24-12.63 188.19-10.3 189.91-8.55 191.64-6.8 193.91-5.8 196.19-4.8 198.79-4.8L198.79-4.8Q201.44-4.8 203.99-5.93 206.54-7.05 208.54-9L208.54-9 212.04-5.35Q210.29-3.6 208.06-2.3 205.84-1 203.41-0.3 200.99 0.4 198.49 0.4L198.49 0.4Q194.64 0.4 191.34-0.98 188.04-2.35 185.56-4.8 183.09-7.25 181.69-10.53 180.29-13.8 180.29-17.55L180.29-17.55Q180.29-21.3 181.69-24.53 183.09-27.75 185.61-30.2 188.14-32.65 191.46-34 194.79-35.35 198.69-35.35L198.69-35.35Q201.19-35.35 203.59-34.7 205.99-34.05 208.14-32.85 210.29-31.65 211.99-29.95L211.99-29.95ZM229.08-26.75L229.08-26.75Q233.18-26.75 236.31-25.05 239.43-23.35 241.18-20.33 242.93-17.3 242.93-13.3L242.93-13.3Q242.93-9.3 241.18-6.25 239.43-3.2 236.31-1.5 233.18 0.2 229.08 0.2L229.08 0.2Q224.98 0.2 221.83-1.5 218.68-3.2 216.93-6.25 215.18-9.3 215.18-13.3L215.18-13.3Q215.18-17.3 216.93-20.33 218.68-23.35 221.83-25.05 224.98-26.75 229.08-26.75ZM229.08-22.1L229.08-22.1Q226.68-22.1 224.83-20.98 222.98-19.85 221.96-17.85 220.93-15.85 220.93-13.25L220.93-13.25Q220.93-10.6 221.96-8.6 222.98-6.6 224.83-5.48 226.68-4.35 229.08-4.35L229.08-4.35Q231.48-4.35 233.31-5.48 235.13-6.6 236.16-8.6 237.18-10.6 237.18-13.25L237.18-13.25Q237.18-15.85 236.16-17.85 235.13-19.85 233.31-20.98 231.48-22.1 229.08-22.1ZM268.28 0L268.28-15Q268.28-18.15 266.63-19.93 264.98-21.7 262.03-21.7L262.03-21.7Q258.58-21.6 256.61-19.15 254.63-16.7 254.63-13.1L254.63-13.1 253.03-13.1Q253.03-18 254.41-21 255.78-24 258.31-25.38 260.83-26.75 264.28-26.75L264.28-26.75Q267.33-26.75 269.51-25.5 271.68-24.25 272.86-21.98 274.03-19.7 274.03-16.5L274.03-16.5 274.03 0 268.28 0ZM287.63 0L287.63-15Q287.63-18.15 285.96-19.93 284.28-21.7 281.33-21.7L281.33-21.7Q277.93-21.6 275.98-19.15 274.03-16.7 274.03-13.1L274.03-13.1 272.38-13.1Q272.38-18 273.76-21 275.13-24 277.66-25.38 280.18-26.75 283.63-26.75L283.63-26.75Q286.68-26.75 288.86-25.5 291.03-24.25 292.21-21.98 293.38-19.7 293.38-16.5L293.38-16.5 293.38 0 287.63 0ZM248.93 0L248.93-26.55 254.63-26.55 254.63 0 248.93 0ZM302.18 0L302.18-28.2Q302.18-31.35 303.5-33.38 304.83-35.4 306.93-36.38 309.03-37.35 311.33-37.35L311.33-37.35Q312.53-37.35 313.75-37.02 314.98-36.7 316.03-36.15L316.03-36.15 314.83-31.75Q314.13-32.05 313.25-32.33 312.38-32.6 311.48-32.6L311.48-32.6Q310.53-32.6 309.7-32.23 308.88-31.85 308.38-31.03 307.88-30.2 307.88-28.9L307.88-28.9 307.88 0 302.18 0ZM298.68-21.5L298.68-25.6 314.83-25.6 314.83-21.5 298.68-21.5ZM330.23-26.75L330.23-26.75Q334.33-26.75 337.45-25.05 340.58-23.35 342.33-20.33 344.08-17.3 344.08-13.3L344.08-13.3Q344.08-9.3 342.33-6.25 340.58-3.2 337.45-1.5 334.33 0.2 330.23 0.2L330.23 0.2Q326.13 0.2 322.98-1.5 319.83-3.2 318.08-6.25 316.33-9.3 316.33-13.3L316.33-13.3Q316.33-17.3 318.08-20.33 319.83-23.35 322.98-25.05 326.13-26.75 330.23-26.75ZM330.23-22.1L330.23-22.1Q327.83-22.1 325.98-20.98 324.13-19.85 323.1-17.85 322.08-15.85 322.08-13.25L322.08-13.25Q322.08-10.6 323.1-8.6 324.13-6.6 325.98-5.48 327.83-4.35 330.23-4.35L330.23-4.35Q332.63-4.35 334.45-5.48 336.28-6.6 337.3-8.6 338.33-10.6 338.33-13.25L338.33-13.25Q338.33-15.85 337.3-17.85 336.28-19.85 334.45-20.98 332.63-22.1 330.23-22.1ZM365.02-26.75L365.02-21.55Q362.17-21.7 360.1-20.58 358.02-19.45 356.9-17.45 355.77-15.45 355.77-12.85L355.77-12.85 354.17-13.05Q354.17-17.5 355.47-20.55 356.77-23.6 359.22-25.18 361.67-26.75 365.02-26.75L365.02-26.75ZM350.07 0L350.07-26.55 355.82-26.55 355.82 0 350.07 0ZM376.52-32.85L376.52-8.4Q376.52-6.25 377.27-5.48 378.02-4.7 379.37-4.7L379.37-4.7Q380.27-4.7 381.25-5 382.22-5.3 383.37-5.9L383.37-5.9 384.82-1.75Q383.27-0.8 381.62-0.28 379.97 0.25 378.27 0.25L378.27 0.25Q376.27 0.25 374.57-0.53 372.87-1.3 371.85-3 370.82-4.7 370.82-7.4L370.82-7.4 370.82-32.85 376.52-32.85ZM367.07-21.5L367.07-25.6 384.37-25.6 384.37-21.5 367.07-21.5ZM403.97 0L403.97-35 410.82-35 422.92-11.25 434.92-35 441.77-35 441.77 0 436.32 0 436.27-26.75 424.77-3.65 421.02-3.65 409.42-26.75 409.42 0 403.97 0ZM452.76-15.2L469.01-15.2Q468.91-17.45 467.99-19.03 467.06-20.6 465.41-21.48 463.76-22.35 461.61-22.35L461.61-22.35Q459.21-22.35 457.44-21.25 455.66-20.15 454.66-18.18 453.66-16.2 453.66-13.55L453.66-13.55Q453.66-10.7 454.74-8.6 455.81-6.5 457.74-5.35 459.66-4.2 462.16-4.2L462.16-4.2Q466.61-4.2 469.66-7.35L469.66-7.35 472.71-4.3Q470.76-2.15 467.96-0.98 465.16 0.2 461.71 0.2L461.71 0.2Q457.61 0.2 454.56-1.5 451.51-3.2 449.81-6.23 448.11-9.25 448.11-13.25L448.11-13.25Q448.11-17.25 449.81-20.28 451.51-23.3 454.56-25 457.61-26.7 461.56-26.75L461.56-26.75Q466.26-26.75 469.11-24.83 471.96-22.9 473.16-19.4 474.36-15.9 474.01-11.1L474.01-11.1 452.76-11.1 452.76-15.2ZM482.16-15.2L498.41-15.2Q498.31-17.45 497.39-19.03 496.46-20.6 494.81-21.48 493.16-22.35 491.01-22.35L491.01-22.35Q488.61-22.35 486.84-21.25 485.06-20.15 484.06-18.18 483.06-16.2 483.06-13.55L483.06-13.55Q483.06-10.7 484.14-8.6 485.21-6.5 487.14-5.35 489.06-4.2 491.56-4.2L491.56-4.2Q496.01-4.2 499.06-7.35L499.06-7.35 502.11-4.3Q500.16-2.15 497.36-0.98 494.56 0.2 491.11 0.2L491.11 0.2Q487.01 0.2 483.96-1.5 480.91-3.2 479.21-6.23 477.51-9.25 477.51-13.25L477.51-13.25Q477.51-17.25 479.21-20.28 480.91-23.3 483.96-25 487.01-26.7 490.96-26.75L490.96-26.75Q495.66-26.75 498.51-24.83 501.36-22.9 502.56-19.4 503.76-15.9 503.41-11.1L503.41-11.1 482.16-11.1 482.16-15.2ZM516.16-32.85L516.16-8.4Q516.16-6.25 516.91-5.48 517.66-4.7 519.01-4.7L519.01-4.7Q519.91-4.7 520.88-5 521.86-5.3 523.01-5.9L523.01-5.9 524.46-1.75Q522.91-0.8 521.26-0.28 519.61 0.25 517.91 0.25L517.91 0.25Q515.91 0.25 514.21-0.53 512.51-1.3 511.48-3 510.46-4.7 510.46-7.4L510.46-7.4 510.46-32.85 516.16-32.85ZM506.71-21.5L506.71-25.6 524.01-25.6 524.01-21.5 506.71-21.5ZM547-24.15L544.9-20.1Q543.15-21.15 541.08-21.78 539-22.4 537.25-22.4L537.25-22.4Q535.55-22.4 534.46-21.75 533.36-21.1 533.36-19.6L533.36-19.6Q533.36-18.35 534.38-17.63 535.4-16.9 537-16.4 538.61-15.9 540.4-15.35 542.21-14.8 543.83-13.93 545.46-13.05 546.46-11.55 547.46-10.05 547.46-7.6L547.46-7.6Q547.46-4.9 546.03-3.18 544.61-1.45 542.28-0.63 539.96 0.2 537.25 0.2L537.25 0.2Q534.36 0.2 531.46-0.75 528.55-1.7 526.55-3.5L526.55-3.5 528.61-7.4Q530.36-5.85 532.86-4.98 535.36-4.1 537.5-4.1L537.5-4.1Q538.75-4.1 539.73-4.42 540.71-4.75 541.28-5.4 541.86-6.05 541.86-7.1L541.86-7.1Q541.86-8.5 540.86-9.3 539.86-10.1 538.25-10.63 536.65-11.15 534.86-11.68 533.05-12.2 531.48-13.05 529.9-13.9 528.9-15.35 527.9-16.8 527.9-19.2L527.9-19.2Q527.9-21.9 529.3-23.58 530.71-25.25 532.93-26.03 535.15-26.8 537.71-26.8L537.71-26.8Q540.21-26.8 542.71-26.1 545.21-25.4 547-24.15L547-24.15ZM567.1 0L567.1-35 592.1-35 592.1-29.95 573-29.95 573-20.1 590.1-20.1 590.1-15.1 573-15.1 573-5.05 592.7-5.05 592.7 0 567.1 0ZM599.8 0L599.8-37.1 605.55-37.1 605.55 0 599.8 0ZM616.44-15.2L632.69-15.2Q632.59-17.45 631.67-19.03 630.74-20.6 629.09-21.48 627.44-22.35 625.29-22.35L625.29-22.35Q622.89-22.35 621.12-21.25 619.34-20.15 618.34-18.18 617.34-16.2 617.34-13.55L617.34-13.55Q617.34-10.7 618.42-8.6 619.49-6.5 621.42-5.35 623.34-4.2 625.84-4.2L625.84-4.2Q630.29-4.2 633.34-7.35L633.34-7.35 636.39-4.3Q634.44-2.15 631.64-0.98 628.84 0.2 625.39 0.2L625.39 0.2Q621.29 0.2 618.24-1.5 615.19-3.2 613.49-6.23 611.79-9.25 611.79-13.25L611.79-13.25Q611.79-17.25 613.49-20.28 615.19-23.3 618.24-25 621.29-26.7 625.24-26.75L625.24-26.75Q629.94-26.75 632.79-24.83 635.64-22.9 636.84-19.4 638.04-15.9 637.69-11.1L637.69-11.1 616.44-11.1 616.44-15.2ZM667.69-26.55L667.69-2.65Q667.69 1.2 665.99 4 664.29 6.8 661.19 8.33 658.09 9.85 653.89 9.85L653.89 9.85Q650.79 9.85 648.04 8.93 645.29 8 642.84 6.35L642.84 6.35 645.29 2.4Q647.19 3.8 649.19 4.58 651.19 5.35 653.64 5.35L653.64 5.35Q656.19 5.35 658.07 4.38 659.94 3.4 660.97 1.65 661.99-0.1 661.99-2.5L661.99-2.5 661.99-26.55 667.69-26.55ZM652.99-26.75L652.99-26.75Q656.49-26.8 658.97-25.28 661.44-23.75 662.74-20.9 664.04-18.05 663.99-14.05L663.99-14.05Q664.04-10.05 662.77-7.18 661.49-4.3 659.07-2.78 656.64-1.25 653.19-1.25L653.19-1.25Q649.59-1.25 646.89-2.88 644.19-4.5 642.69-7.4 641.19-10.3 641.19-14.1L641.19-14.1Q641.19-17.85 642.67-20.68 644.14-23.5 646.82-25.13 649.49-26.75 652.99-26.75ZM654.34-22.35L654.34-22.35Q652.09-22.35 650.34-21.28 648.59-20.2 647.62-18.3 646.64-16.4 646.59-13.95L646.59-13.95Q646.64-11.5 647.62-9.6 648.59-7.7 650.32-6.63 652.04-5.55 654.34-5.55L654.34-5.55Q656.59-5.55 658.32-6.63 660.04-7.7 661.02-9.6 661.99-11.5 661.99-13.95L661.99-13.95Q661.99-16.45 661.02-18.32 660.04-20.2 658.32-21.28 656.59-22.35 654.34-22.35ZM692.34-11.85L684.39-11.85Q681.59-11.85 680.24-11 678.89-10.15 678.89-8.2L678.89-8.2Q678.89-6.35 680.26-5.25 681.64-4.15 684.04-4.15L684.04-4.15Q686.19-4.15 687.89-4.9 689.59-5.65 690.59-6.93 691.59-8.2 691.64-9.8L691.64-9.8 692.74-4.95Q691.49-2.35 688.94-1.05 686.39 0.25 682.84 0.25L682.84 0.25Q679.99 0.25 677.89-0.85 675.79-1.95 674.64-3.83 673.49-5.7 673.49-8L673.49-8Q673.49-11.6 676.11-13.75 678.74-15.9 683.54-15.95L683.54-15.95 692.34-15.95 692.34-11.85ZM691.64 0L691.59-16.85Q691.59-19.45 689.99-20.9 688.39-22.35 685.24-22.35L685.24-22.35Q683.34-22.35 681.36-21.65 679.39-20.95 677.39-19.6L677.39-19.6 675.04-23.3Q676.89-24.45 678.54-25.2 680.19-25.95 682.06-26.35 683.94-26.75 686.49-26.75L686.49-26.75Q691.64-26.75 694.41-24.28 697.19-21.8 697.24-17.45L697.24-17.45 697.29 0 691.64 0ZM724.69 0L724.69-15Q724.69-18.1 722.99-19.88 721.29-21.65 718.29-21.65L718.29-21.65Q714.74-21.6 712.71-19.15 710.69-16.7 710.69-13.05L710.69-13.05 709.09-13.05Q709.09-18 710.49-21 711.89-24 714.46-25.38 717.04-26.75 720.54-26.75L720.54-26.75Q723.64-26.75 725.86-25.5 728.09-24.25 729.26-21.98 730.44-19.7 730.44-16.5L730.44-16.5 730.44 0 724.69 0ZM704.99 0L704.99-26.55 710.74-26.55 710.74 0 704.99 0ZM760.03-22.65L756.88-18.95Q755.48-20.4 753.58-21.2 751.68-22 749.28-22L749.28-22Q746.98-22 745.18-20.9 743.38-19.8 742.38-17.82 741.38-15.85 741.38-13.25L741.38-13.25Q741.38-10.65 742.38-8.68 743.38-6.7 745.18-5.58 746.98-4.45 749.28-4.45L749.28-4.45Q751.78-4.45 753.78-5.28 755.78-6.1 757.13-7.7L757.13-7.7 760.33-4.55Q758.53-2.3 755.66-1.05 752.78 0.2 749.03 0.2L749.03 0.2Q745.08 0.2 742.06-1.5 739.03-3.2 737.33-6.23 735.63-9.25 735.63-13.25L735.63-13.25Q735.63-17.25 737.33-20.28 739.03-23.3 742.06-25.03 745.08-26.75 749.03-26.75L749.03-26.75Q752.63-26.75 755.41-25.68 758.18-24.6 760.03-22.65L760.03-22.65ZM768.48-15.2L784.73-15.2Q784.63-17.45 783.71-19.03 782.78-20.6 781.13-21.48 779.48-22.35 777.33-22.35L777.33-22.35Q774.93-22.35 773.16-21.25 771.38-20.15 770.38-18.18 769.38-16.2 769.38-13.55L769.38-13.55Q769.38-10.7 770.46-8.6 771.53-6.5 773.46-5.35 775.38-4.2 777.88-4.2L777.88-4.2Q782.33-4.2 785.38-7.35L785.38-7.35 788.43-4.3Q786.48-2.15 783.68-0.98 780.88 0.2 777.43 0.2L777.43 0.2Q773.33 0.2 770.28-1.5 767.23-3.2 765.53-6.23 763.83-9.25 763.83-13.25L763.83-13.25Q763.83-17.25 765.53-20.28 767.23-23.3 770.28-25 773.33-26.7 777.28-26.75L777.28-26.75Q781.98-26.75 784.83-24.83 787.68-22.9 788.88-19.4 790.08-15.9 789.73-11.1L789.73-11.1 768.48-11.1 768.48-15.2Z" opacity="1" transform="matrix(1,0,0,1,0,0)" fill="black" class="slogan-text-1" id="SvgjsPath1105"></path></svg></g></svg></g></svg></g></svg></g><g><svg viewBox="0 0 124.53026836283439 104.90012213703399" height="104.90012213703399" width="124.53026836283439"><g><svg xmlns="http://www.w3.org/2000/svg" xmlns:xlink="http://www.w3.org/1999/xlink" version="1.1" x="0" y="0" viewBox="5 12.095 89.99764711924837 75.811" enable-background="new 0 0 100 100" xml:space="preserve" height="104.90012213703399" width="124.53026836283439" class="icon-icon-0" data-fill-palette-color="accent" id="SvgjsSvg1104"><g fill="white"><path fill="white" d="M77.204 31.327A1.82 1.82 0 0 1 75.821 31.96H55.153A1.82 1.82 0 0 1 53.772 31.329 0.34 0.34 0 0 0 53.296 31.296 0.333 0.333 0 0 0 53.261 31.768 2.5 2.5 0 0 0 55.154 32.635H75.822C76.549 32.635 77.24 32.322 77.717 31.767A0.338 0.338 0 1 0 77.204 31.327"></path><path fill="white" d="M46.16 31.327A1.82 1.82 0 0 1 44.777 31.96H24.177A1.82 1.82 0 0 1 22.795 31.329 0.34 0.34 0 0 0 22.319 31.296 0.333 0.333 0 0 0 22.284 31.768 2.5 2.5 0 0 0 24.177 32.635H44.777C45.504 32.635 46.195 32.322 46.672 31.767A0.337 0.337 0 0 0 46.636 31.291 0.337 0.337 0 0 0 46.16 31.327"></path><path fill="white" d="M94.962 81.819A0.3 0.3 0 0 0 94.945 81.748L94.937 81.727A2 2 0 0 0 94.857 81.503L85.041 54.096A0.76 0.76 0 0 0 85.409 54.2 0.6 0.6 0 0 0 85.868 53.982C86.123 53.68 86.176 53.082 86.025 52.204L85.058 46.676C84.809 45.221 83.54 44.009 82.053 43.773V13.753C82.053 12.822 81.339 12.095 80.408 12.095H19.591C18.66 12.095 17.866 12.822 17.866 13.753V43.789C16.515 44.061 15.231 45.249 14.976 46.668L13.989 52.204C13.833 53.069 13.889 53.664 14.147 53.972A0.62 0.62 0 0 0 14.627 54.199C14.834 54.199 15.047 54.102 15.274 53.908L5.15 81.485A2 2 0 0 0 5.061 81.728L5.055 81.745A1.8 1.8 0 0 0 5 82.181C5 83.094 5.758 83.852 6.689 83.852H9.892V86.186C9.892 87.117 10.585 87.906 11.517 87.906H88.483C89.414 87.906 90.162 87.117 90.162 86.186V83.852H93.31A1.688 1.688 0 0 0 94.962 81.819M10.568 77.635V74.429C10.568 73.87 10.958 73.446 11.517 73.446H88.483C89.042 73.446 89.486 73.87 89.486 74.429V77.635zM83.713 53.142C83.715 53.159 83.717 53.162 83.721 53.179L88.935 72.825A1.7 1.7 0 0 0 88.483 72.77H11.517C11.36 72.77 11.209 72.778 11.065 72.818L16.263 53.214C17.099 52.783 18.268 52.5 19.257 52.5H80.879C81.818 52.5 82.909 52.745 83.713 53.142M13.753 60.014L10.244 73.261C10.238 73.285 10.267 73.309 10.266 73.333 10.013 73.628 9.892 74.011 9.892 74.429V77.635H9.73A0.338 0.338 0 1 0 9.73 78.311H90.27A0.338 0.338 0 1 0 90.27 77.635H90.162V74.429C90.162 74.011 90.013 73.629 89.761 73.333A0.4 0.4 0 0 0 89.753 73.261L85.651 57.804 93.811 80.565A1.7 1.7 0 0 0 93.311 80.472H6.689C6.52 80.472 6.357 80.516 6.202 80.561zM81.379 13.753V43.716H80.568V31.499A3.06 3.06 0 0 0 77.521 28.446H72.595V12.77H80.409C80.968 12.77 81.379 13.194 81.379 13.753M51.108 43.716V31.499C51.108 30.195 52.151 29.121 53.455 29.121H77.52A2.385 2.385 0 0 1 79.892 31.499V43.716zM49.487 43.716V31.499C49.487 29.822 48.153 28.446 46.476 28.446H28V19.527H71.919V28.446H53.456C51.779 28.446 50.433 29.823 50.433 31.499V43.716zM20.162 43.716V31.499C20.162 30.195 21.175 29.121 22.479 29.121H46.475C47.779 29.121 48.81 30.195 48.81 31.499V43.716zM71.919 18.851H28V12.77H71.919zM19.591 12.77H27.325V28.446H22.48C20.803 28.446 19.487 29.823 19.487 31.499V43.716H18.541V13.753C18.541 13.194 19.032 12.77 19.591 12.77M14.654 53.517C14.602 53.419 14.528 53.075 14.663 52.324L15.659 46.781C15.891 45.49 17.196 44.392 18.508 44.392H81.59C82.923 44.392 84.191 45.468 84.415 46.782L85.36 52.314C85.484 53.037 85.423 53.39 85.374 53.507 85.328 53.483 85.242 53.456 85.115 53.316 84.339 52.463 82.478 51.825 80.879 51.825H19.257C17.661 51.825 15.773 52.46 14.959 53.31 14.799 53.476 14.698 53.5 14.654 53.517M89.487 86.185C89.487 86.744 89.042 87.229 88.484 87.229H11.517C10.958 87.229 10.568 86.744 10.568 86.185V83.851H89.487zM93.311 83.176H6.689A1.01 1.01 0 0 1 5.675 82.181C5.675 82.103 5.686 82.019 5.704 81.946L5.775 81.729C5.938 81.399 6.286 81.148 6.689 81.148H93.311C93.72 81.148 94.072 81.402 94.232 81.739L94.295 81.924A1.017 1.017 0 0 1 93.311 83.176"></path></g></svg></g></svg></g></svg></g></svg></g><g><path d="M0 123.6c0-68.262 55.338-123.6 123.6-123.6 55.797 0 102.959 36.972 118.322 87.755h-0.675c-15.343-50.42-62.21-87.109-117.647-87.109-67.905 0-122.954 55.048-122.954 122.954 0 67.905 55.048 122.954 122.954 122.954 55.437 0 102.304-36.688 117.647-87.109l0.675 0c-15.364 50.782-62.525 87.755-118.322 87.755-68.262 0-123.6-55.338-123.6-123.6z" fill="black" stroke="transparent"></path></g></svg></g><defs><mask></mask></defs></svg><rect width="395.52" height="247.2" fill="black" stroke="none" visibility="hidden"></rect></g></mask><linearGradient x1="0" x2="1" y1="0.5" y2="0.5" id="8ddda378-0c97-4f80-ad60-5ef1d10a9de1"><stop stop-color="#f00b51" offset="0"></stop><stop stop-color="#730062" offset="1"></stop></linearGradient><rect width="395.52" height="247.2" fill="url(#8ddda378-0c97-4f80-ad60-5ef1d10a9de1)" mask="url(#cb314dd0-0148-4dfa-870c-cdc5c15cd2ac)" data-fill-palette-color="accent"></rect></svg><rect width="395.52" height="247.2" fill="none" stroke="none" visibility="hidden"></rect></g></svg></g></svg>